<?xml version="1.0" standalone="no"?><!DOCTYPE svg PUBLIC "-//W3C//DTD SVG 1.1//EN" "http://www.w3.org/Graphics/SVG/1.1/DTD/svg11.dtd"><svg t="1570848363191" class="icon" viewBox="0 0 1024 1024" version="1.1" xmlns="http://www.w3.org/2000/svg" p-id="5415" xmlns:xlink="http://www.w3.org/1999/xlink" width="200" height="200"><defs><style type="text/css"></style></defs><path d="M756.572536 550.322026a177.728822 177.728822 0 0 0-177.668697 177.969321A177.728822 177.728822 0 0 0 756.572536 906.380917a177.728822 177.728822 0 0 0 177.668697-178.029445c0.032881-98.195963-79.472734-177.863163-177.668697-178.029446z m126.502517 148.448058L827.700139 753.062752a7.876345 7.876345 0 0 0-2.164491 6.373226l13.1072 76.057835a7.635846 7.635846 0 0 1-6.012477 8.597842 8.898466 8.898466 0 0 1-4.629608-0.601248L759.638899 807.35542a6.914349 6.914349 0 0 0-6.673849 0l-68.421989 36.134987c-3.607486 1.803743-7.93647 0.601248-9.619964-3.126488a7.515596 7.515596 0 0 1-0.721497-4.569482l13.1072-76.238209a6.974473 6.974473 0 0 0-2.104367-6.313101l-55.374914-53.93192a7.335222 7.335222 0 0 1 4.208734-12.505952l76.659083-11.243332a7.154848 7.154848 0 0 0 5.411229-3.90811l34.210995-69.504235a7.515596 7.515596 0 0 1 9.619963-3.607486 7.214972 7.214972 0 0 1 3.727736 3.607486l34.150869 69.504235c1.022121 2.044242 3.126488 3.607486 5.41123 3.90811l76.598958 11.243332a7.373739 7.373739 0 0 1 4.749856 2.825864c1.142371 1.563244 1.563244 3.427112 1.322745 5.351105-0.961996 1.38287-1.503119 2.885989-2.825864 3.78786z" p-id="5416" fill="#ffffff"></path><path d="M528.579406 736.227817H241.664c-17.470004-0.75062-31.247031-15.131714-31.247031-32.617689s13.777028-31.867068 31.247031-32.617688h288.298275c2.164492 0 4.328983 0.240499 6.373226 0.601248 30.410921-111.585938 139.899068-182.427949 254.147405-164.441248l0.420874-352.752029A63.852506 63.852506 0 0 0 726.870899 90.187156H153.761585c-35.366517 0.165343-63.967119 28.846738-64.03288 64.213255L89.247706 867.840939A63.852506 63.852506 0 0 0 153.280587 931.933945h499.33622c-74.183633-37.468066-121.818422-112.626848-124.037401-195.706128z m-309.943193-408.187068a32.407251 32.407251 0 0 1 23.027787-9.499714h132.214371a32.64775 32.64775 0 1 1 0.120249 65.235376H241.844374c-18.037431 0-32.527501-14.610319-32.527501-32.707875a31.625629 31.625629 0 0 1 9.31934-23.027787z m23.027787 156.985776h326.116756c17.556433 0.661372 31.50538 15.151442 31.50538 32.64775-0.05167 17.568646-13.949886 31.970407-31.50538 32.647751H241.664c-18.037431 0-32.467376-14.670444-32.467376-32.587626 0-17.917182 14.550194-32.707875 32.467376-32.707875z" p-id="5417" fill="#ffffff"></path></svg>