<?xml version="1.0" standalone="no"?><!DOCTYPE svg PUBLIC "-//W3C//DTD SVG 1.1//EN" "http://www.w3.org/Graphics/SVG/1.1/DTD/svg11.dtd"><svg t="1570848413175" class="icon" viewBox="0 0 1103 1024" version="1.1" xmlns="http://www.w3.org/2000/svg" p-id="6226" xmlns:xlink="http://www.w3.org/1999/xlink" width="215.4296875" height="200"><defs><style type="text/css"></style></defs><path d="M1058.678994 926.355284h-55.616532c13.371444-6.086049 22.341029-17.097076 22.341029-29.588148V283.900769c0-19.049204-20.848225-34.627958-46.34073-34.627958h-328.672141V48.484244a48.624593 48.624593 0 0 0-48.484244-48.484244h-486.118345a48.624593 48.624593 0 0 0-48.484244 48.484244v834.439364a48.624593 48.624593 0 0 0 27.049104 43.38064H45.128624A45.256214 45.256214 0 0 0 0 971.432872v7.387468a45.256214 45.256214 0 0 0 45.128624 45.128624h1013.55037a45.256214 45.256214 0 0 0 45.128624-45.128624v-7.387468a45.256214 45.256214 0 0 0-45.128624-45.077588z m-549.913403-552.784181c0 22.608969-16.433607 41.096777-36.529051 41.096776H182.976986c-20.095443 0-36.52905-18.487808-36.52905-41.096776s16.433607-41.096777 36.52905-41.096777h289.259554c20.095443 0 36.52905 18.487808 36.529051 41.096777z m-362.355932-123.762413c0-22.608969 16.433607-41.096777 36.52905-41.096777h289.297831c20.095443 0 36.52905 18.487808 36.529051 41.096777S492.331984 290.905466 472.23654 290.905466H182.976986c-20.095443 0-36.52905-18.487808-36.52905-41.096776z m-0.52312 255.295064c0-22.608969 16.433607-41.096777 36.529051-41.096776h289.259554c20.095443 0 36.52905 18.487808 36.52905 41.096776s-16.433607 41.096777-36.52905 41.096777H182.41559c-20.095443 0-36.52905-18.487808-36.529051-41.096777z" p-id="6227" fill="#ffffff"></path></svg>