<?xml version="1.0" standalone="no"?><!DOCTYPE svg PUBLIC "-//W3C//DTD SVG 1.1//EN" "http://www.w3.org/Graphics/SVG/1.1/DTD/svg11.dtd"><svg t="1571826205788" class="icon" viewBox="0 0 1024 1024" version="1.1" xmlns="http://www.w3.org/2000/svg" p-id="2494" xmlns:xlink="http://www.w3.org/1999/xlink" width="200" height="200"><defs><style type="text/css"></style></defs><path d="M1020.56 718.337c-2.27-12.346-14.2-24.883-26.546-27.761l-9.243-2.047a92.079 92.079 0 0 1-62.942-109.414l2.878-8.635c3.71-11.93-1.023-28.593-10.682-36.813 0 0-8.636-7.42-33.103-21.396-24.466-13.977-34.957-17.879-34.957-17.879-11.93-4.317-28.593-0.192-37.228 9.051l-6.365 7.005a91.247 91.247 0 0 1-63.134 25.106 91.087 91.087 0 0 1-63.358-25.298l-6.173-6.589c-8.635-9.243-25.298-13.369-37.228-9.05 0 0-10.714 3.901-35.181 17.91-24.467 14.2-33.103 21.588-33.103 21.588-9.658 8.028-14.392 24.467-10.714 36.62l2.687 8.86a92.11 92.11 0 0 1-9.883 67.452A91.055 91.055 0 0 1 492.81 689.2l-8.86 2.047c-12.153 2.879-24.275 15.224-26.546 27.761 0 0-2.047 11.099-2.047 39.276s2.047 39.275 2.047 39.275c2.271 12.537 14.2 24.882 26.546 27.76l8.636 2.048a92.047 92.047 0 0 1 63.582 109.605l-2.463 8.636c-3.71 11.93 1.023 28.592 10.682 36.812 0 0 8.636 7.42 33.103 21.397 24.467 14.2 34.957 17.878 34.957 17.878 11.93 4.318 28.593 0.192 37.228-9.051l6.173-6.589a91.951 91.951 0 0 1 126.716 0l6.173 6.589c8.635 9.243 25.298 13.369 37.228 9.051 0 0 10.714-3.902 35.181-17.878 24.467-14.2 33.103-21.397 33.103-21.397 9.659-8.028 14.392-24.69 10.682-36.812l-2.687-8.828a91.631 91.631 0 0 1 9.883-67.26 91.28 91.28 0 0 1 53.7-42.153l8.635-2.047c12.121-2.879 24.275-15.224 26.546-27.761 0 0 2.047-11.099 2.047-39.275-0.64-28.817-2.495-39.947-2.495-39.947zM738.95 870.959a113.028 113.028 0 1 1 0-226.055 112.996 112.996 0 1 1 0 226.055z m0 0" p-id="2495" fill="#ffffff"></path><path d="M699.899 0H85.667A84.947 84.947 0 0 0 0.752 84.755v780.991a84.915 84.915 0 0 0 84.915 84.723h345.671S288.854 406.855 784.846 406.855v-322.1A84.947 84.947 0 0 0 699.899 0z m-320.31 566.578H198.088a37.004 37.004 0 0 1 0-73.945H379.59a36.94 36.94 0 0 1 0 73.945z m178.53-170.63H198.087a36.972 36.972 0 0 1 0-73.944h360.032a36.94 36.94 0 0 1 0 73.945z m0-167.75H198.087a36.94 36.94 0 0 1 0-73.944h360.032a36.94 36.94 0 0 1 0 73.944z" p-id="2496" fill="#ffffff"></path></svg>